<?xml version="1.0" encoding="UTF-8"?>
<svg version="1.1" xmlns="http://www.w3.org/2000/svg" width="1400" height="1400">
<path d="M0 0 C462 0 924 0 1400 0 C1400 462 1400 924 1400 1400 C938 1400 476 1400 0 1400 C0 938 0 476 0 0 Z " fill="#000000" transform="translate(0,0)"/>
<path d="M0 0 C66.33 0 132.66 0 201 0 C206.61538462 13.47692308 206.61538462 13.47692308 208.71875 19.96875 C208.94397339 20.65578003 209.16919678 21.34281006 209.40124512 22.05065918 C210.34053657 24.91640173 211.26870153 27.78571018 212.19775391 30.65478516 C214.81141121 38.7045566 217.55283822 46.57922414 220.89697266 54.36328125 C222.45815686 58.09519569 223.71395726 61.8969332 224.9375 65.75 C226.8384487 71.60202507 228.85433773 77.38193145 231.0625 83.125 C233.58542462 89.69850667 235.72313332 96.33679665 237.7265625 103.0859375 C238.64104171 106.03677887 239.73299651 108.87521138 240.90234375 111.734375 C243.59243961 118.3401945 245.72746741 125.11638174 247.91210938 131.90234375 C249.91876648 138.03709426 252.20404387 143.95843842 254.73022461 149.89648438 C257.00188777 155.44875934 258.88937754 161.1321341 260.8125 166.8125 C261.24799633 168.08861649 261.68395798 169.36457427 262.12036133 170.64038086 C262.99860029 173.20835766 263.87531143 175.77684762 264.75097656 178.34570312 C266.54392028 183.59136019 268.36311818 188.8277092 270.1875 194.0625 C270.50920166 194.98691895 270.83090332 195.91133789 271.16235352 196.86376953 C272.73939988 201.39290854 274.32171154 205.92015838 275.91015625 210.4453125 C276.21759766 211.32131104 276.52503906 212.19730957 276.84179688 213.09985352 C277.43792497 214.79833783 278.03427195 216.49674533 278.63085938 218.19506836 C280.19450301 222.65789233 281.71610952 227.130675 283.1875 231.625 C284.29044812 234.97091825 285.47125364 238.2426874 286.8125 241.5 C289.8781656 248.99651042 292.42612123 256.68854267 295.07666016 264.33886719 C296.54210868 268.56239679 298.02139801 272.78106119 299.5 277 C301.23035439 281.94009207 302.95923194 286.88066938 304.6796875 291.82421875 C308.25457996 302.08535002 311.90868792 312.31558976 315.60205078 322.53466797 C318.03398475 329.2775249 320.4126375 336.03634919 322.75 342.8125 C326.05748515 352.38653589 329.48532061 361.91499648 332.9375 371.4375 C338.3735502 386.43678593 343.73412556 401.46213688 349.0625 416.5 C349.42971161 417.53510712 349.79692322 418.57021423 350.17526245 419.63668823 C351.2340207 422.62191914 352.2911226 425.60773113 353.34765625 428.59375 C353.65760529 429.46749771 353.96755432 430.34124542 354.28689575 431.24147034 C356.60524405 437.80446749 358.79787808 444.39363425 361 451 C361.33 302.17 361.66 153.34 362 0 C428.33 0 494.66 0 563 0 C563 337.26 563 674.52 563 1022 C553.09485337 1021.38092834 543.33629308 1020.70622126 533.5 1019.5625 C532.32421387 1019.42908203 531.14842773 1019.29566406 529.93701172 1019.15820312 C523.9940671 1018.4791969 518.057338 1017.76567052 512.125 1017 C494.83141482 1014.79699552 477.45788303 1013.10970872 460.08015442 1011.73057556 C455.36042601 1011.35579615 450.6422291 1010.97366408 445.92700195 1010.5456543 C427.96760009 1008.93603313 409.97831546 1007.97541534 391.97558594 1007.00842285 C387.79087735 1006.78288604 383.60638757 1006.55335858 379.421875 1006.32421875 C371.281453 1005.87902096 363.14080882 1005.4380674 355 1005 C354.6573259 1003.96685669 354.31465179 1002.93371338 353.96159363 1001.8692627 C353.5072275 1000.5020227 353.05282387 999.13479517 352.59838867 997.76757812 C352.37310234 997.08802063 352.14781601 996.40846313 351.91570282 995.70831299 C350.38014069 991.09172088 348.74139864 986.54194934 347 982 C340.52669237 964.39917742 334.36746843 946.68502378 328.18690491 928.97998047 C322.18826878 911.79727406 316.10180771 894.64630863 310 877.5 C308.62475305 873.63550447 307.24973012 869.77092941 305.875 865.90625 C305.54335846 864.97413193 305.21171692 864.04201385 304.87002563 863.08164978 C302.80636889 857.27819474 300.75532026 851.47042398 298.7109375 845.66015625 C296.74033101 840.06326927 294.71563119 834.49057285 292.625 828.9375 C290.09835076 822.15026756 287.75475131 815.31938793 285.5 808.4375 C281.73348551 796.97240596 277.69427587 785.61042849 273.625 774.25 C273.29920959 773.34034485 272.97341919 772.4306897 272.63775635 771.49346924 C270.72007886 766.14139382 268.79915472 760.79048882 266.87670898 755.44012451 C264.70612331 749.39878195 262.53859469 743.3563502 260.375 737.3125 C259.97418213 736.19294922 259.57336426 735.07339844 259.16040039 733.91992188 C256.69186382 727.00189171 254.29846916 720.06599605 252.03515625 713.078125 C251.03668324 710.10908073 249.95479168 707.17983909 248.84594727 704.25048828 C243.05928101 688.856119 237.68426765 673.30746142 232.36303711 657.74731445 C230.56989056 652.51100521 228.75769083 647.29317934 226.78662109 642.12133789 C224.50827624 635.97716085 222.44534738 629.75180328 220.31640625 623.5546875 C218.55807602 618.45138562 216.78217437 613.36395905 214.86230469 608.31933594 C213.65108357 605.06152149 212.49439754 601.78465536 211.3359375 598.5078125 C211.09655457 597.83087341 210.85717163 597.15393433 210.61053467 596.45648193 C209.60940098 593.62338408 208.60940213 590.78988779 207.61035156 587.95605469 C206.8741563 585.86874688 206.13639024 583.78199949 205.3984375 581.6953125 C204.96192871 580.45797363 204.52541992 579.22063477 204.07568359 577.94580078 C203.10591713 575.11742649 203.10591713 575.11742649 202 573 C201.67 715.89 201.34 858.78 201 1006 C191.1 1006.33 181.2 1006.66 171 1007 C160.60521736 1007.73832373 160.60521736 1007.73832373 150.21484375 1008.53515625 C144.81142954 1008.9571309 139.41507384 1009.22733208 134 1009.4375 C94.54539334 1011.11135506 54.91543719 1015.78952138 15.76904297 1020.83178711 C14.5523291 1020.98655518 13.33561523 1021.14132324 12.08203125 1021.30078125 C11.04280518 1021.43653564 10.0035791 1021.57229004 8.93286133 1021.7121582 C5.96794055 1022.00314643 2.97916589 1022 0 1022 C0 684.74 0 347.48 0 0 Z " fill="#E40813" transform="translate(429,189)"/>
<path d="M0 0 C66.33 0 132.66 0 201 0 C201 337.26 201 674.52 201 1022 C199.30790015 1019.46185022 198.35907727 1017.55327058 197.3359375 1014.73828125 C197.02277588 1013.87920166 196.70961426 1013.02012207 196.38696289 1012.13500977 C196.05301514 1011.20358154 195.71906738 1010.27215332 195.375 1009.3125 C195.02236084 1008.33788818 194.66972168 1007.36327637 194.30639648 1006.35913086 C191.77145728 999.29811765 189.39441287 992.19265966 187.0625 985.0625 C184.05193168 975.85863424 180.66324107 966.85938547 177.07446289 957.86694336 C174.82448503 952.20060459 172.84757431 946.55440431 171.15234375 940.6953125 C167.37242144 928.57393451 162.86250365 916.61615828 158.1875 904.8125 C156.5852408 900.73106946 155.32204531 896.6724838 154.1875 892.4375 C152.28038015 885.46557006 149.66581634 878.86627383 146.9050293 872.19116211 C145.01691991 867.61639305 143.29059927 863.04091261 141.76196289 858.33374023 C140.32391664 853.92929162 138.77603948 849.56207182 137.25 845.1875 C136.90146973 844.18775146 136.55293945 843.18800293 136.19384766 842.15795898 C135.47681027 840.10163885 134.75952561 838.04540491 134.04199219 835.98925781 C133.06954288 833.19950399 132.1006118 830.40855718 131.1328125 827.6171875 C127.33029669 816.67032949 123.3737823 805.79623554 119.22363281 794.97583008 C117.74119937 791.08052905 116.41171497 787.19322472 115.25 783.1875 C113.32155915 776.81334056 111.04443547 770.6067748 108.71240234 764.37304688 C106.37875051 758.10516922 104.22409291 751.79227228 102.13598633 745.43896484 C100.2147583 739.60354974 98.17379881 733.82115816 96.0859375 728.04296875 C95.16269513 725.45589749 94.28549791 722.86238065 93.4375 720.25 C92.4532424 717.24378335 91.33795007 714.32665432 90.1328125 711.40234375 C88.00103688 706.10915609 86.19396834 700.73978981 84.4375 695.3125 C82.15910508 688.19134556 82.15910508 688.19134556 79.40625 681.24609375 C78.04769996 678.11010741 77.02182474 675.02734975 76.0625 671.75 C74.25042832 665.74155181 72.19422213 659.87763763 70 654 C69.46668426 652.5510621 68.9342009 651.10181768 68.40234375 649.65234375 C66.60877008 644.76555612 64.80581369 639.88227606 63 635 C62.7127002 634.22205078 62.42540039 633.44410156 62.12939453 632.64257812 C61.31801787 630.44824773 60.50334282 628.25517324 59.6875 626.0625 C59.32422607 625.07890503 59.32422607 625.07890503 58.95361328 624.07543945 C58.03582793 621.61775665 57.11359414 619.22026678 55.91015625 616.88671875 C54.78287803 614.54991455 54.30223828 612.28463209 53.75 609.75 C52.39706099 604.14883251 50.53790783 598.84395636 48.47143555 593.47851562 C45.43396094 585.58532729 42.68058787 577.59789311 39.90869141 569.60839844 C38.98161755 566.94723318 38.04495364 564.2896198 37.10546875 561.6328125 C36.63935181 560.31168457 36.63935181 560.31168457 36.16381836 558.96386719 C35.5764589 557.29986514 34.98755739 555.63640616 34.39672852 553.97363281 C32.97451479 549.93391808 31.6533528 545.88779689 30.44921875 541.77734375 C29.37095181 538.12553753 28.11725909 534.66914085 26.5625 531.1875 C24.31776804 525.9497921 22.57726889 520.67375988 20.9921875 515.203125 C20.06818165 512.22011397 19.02233006 509.30946077 17.91015625 506.39208984 C16.80998712 503.50060456 15.7348421 500.60027159 14.66015625 497.69921875 C14.23669922 496.55646484 13.81324219 495.41371094 13.37695312 494.23632812 C12.94318359 493.06521484 12.50941406 491.89410156 12.0625 490.6875 C11.63259766 489.52798828 11.20269531 488.36847656 10.75976562 487.17382812 C2.18051224 464.01374957 2.18051224 464.01374957 0 457 C-0.17543317 456.45538046 -0.35086635 455.91076091 -0.53161567 455.34963775 C-1.18992148 452.04726386 -1.12723434 448.78542805 -1.10743046 445.4331398 C-1.10662866 444.27896682 -1.10662866 444.27896682 -1.10581067 443.10147721 C-1.10276838 440.50806904 -1.09249479 437.91473927 -1.08229065 435.3213501 C-1.07859792 433.44936411 -1.07534838 431.57737721 -1.07250541 429.70538974 C-1.06338592 424.54949629 -1.04795368 419.3936378 -1.03152263 414.23776317 C-1.01491274 408.68223405 -1.00411182 403.12669335 -0.99261475 397.57115173 C-0.97188769 387.94186657 -0.94745882 378.31259647 -0.92053413 368.68332672 C-0.88161061 354.76092179 -0.84824126 340.83850793 -0.81623887 326.91608557 C-0.76416905 304.32930019 -0.70759969 281.7425287 -0.64819336 259.15576172 C-0.59048742 237.2114312 -0.53491518 215.26709695 -0.48217773 193.32275391 C-0.47885911 191.94310049 -0.47554042 190.56344708 -0.47222167 189.18379366 C-0.44653829 178.50230941 -0.42099086 167.82082482 -0.39547622 157.13934016 C-0.27032607 104.759542 -0.13440255 52.37977681 0 0 Z " fill="#AC050E" transform="translate(791,189)"/>
<path d="M0 0 C3.99237615 5.98856422 5.78714732 13.2041169 7.8125 20.0625 C9.41077864 25.3712922 11.32071813 30.48208148 13.375 35.625 C15.83225202 41.78705206 18.00523134 47.96654378 19.9375 54.3125 C22.35205758 62.23208459 25.18663786 69.9346368 28.17724609 77.65332031 C30.25374445 83.0180243 32.19669614 88.3944864 33.97265625 93.8671875 C37.41932961 104.37757546 41.18057546 114.78494526 44.98046875 125.171875 C45.24328644 125.89103592 45.50610413 126.61019684 45.77688599 127.35115051 C47.09199882 130.94833563 48.41097793 134.54402536 49.73632812 138.13745117 C52.40885924 145.41491071 54.87332613 152.70115571 57.10375977 160.12963867 C58.333268 164.06734729 59.81881834 167.86975826 61.375 171.6875 C64.18768718 178.74021955 66.7037506 185.85299211 69.04638672 193.07495117 C70.00696332 196.03497779 70.98142971 198.95460595 72.16015625 201.8359375 C73.13347413 204.3439287 73.15240737 206.33287102 73 209 C73.66 209 74.32 209 75 209 C75.3403125 210.04414063 75.680625 211.08828125 76.03125 212.1640625 C78.87766981 220.83125092 81.85336373 229.43699796 85 238 C87.69908453 245.34623713 90.27231979 252.71575385 92.7043457 260.15429688 C95.03735649 267.23464907 97.5986058 274.22811812 100.19726562 281.21484375 C102.09301525 286.34900673 103.80235756 291.4915291 105.30688477 296.75439453 C106.00664988 299.02154476 106.84028099 301.18454034 107.75 303.375 C113.53619144 317.45251558 118.14638051 332.09539144 122.83203125 346.5703125 C124.0382303 350.27276306 125.33907063 353.89492897 126.8125 357.5 C130.13749181 365.68653287 132.939419 374.07433384 135.84082031 382.41796875 C136.70539465 384.90399049 137.57105006 387.38963134 138.4375 389.875 C138.87497559 391.13038574 138.87497559 391.13038574 139.32128906 392.41113281 C141.33803394 398.17357729 143.4313259 403.90401552 145.5625 409.625 C148.12872928 416.515959 150.51190281 423.44933566 152.79882812 430.4375 C154.64804902 436.049269 156.69465434 441.56584604 158.81396484 447.08032227 C160.87709192 452.51422089 162.63424195 458.01956519 164.26391602 463.59814453 C165.13270194 466.51075408 166.09015291 469.17933904 167.45703125 471.8984375 C169.04519683 475.09085134 170.14270473 478.23130647 171.23193359 481.6171875 C172.51702666 485.6039988 173.92430076 489.54815763 175.3125 493.5 C175.61663818 494.36802246 175.92077637 495.23604492 176.23413086 496.13037109 C177.67449288 500.23808408 179.12007246 504.3438441 180.578125 508.4453125 C183.12965491 515.62736589 185.6173462 522.82248153 188 530.0625 C190.2872331 537.00705926 192.77020061 543.84999635 195.41015625 550.66796875 C195.64739011 551.31792893 195.88462397 551.96788911 196.12904674 552.63754505 C196.79941258 554.45590794 197.50660477 556.26072491 198.22920436 558.05896956 C202.08237916 568.34752645 202.68800942 577.44612099 202.56330872 588.35606384 C202.56135422 590.16742159 202.56161621 591.97878283 202.56388015 593.79014021 C202.56373162 598.72759716 202.53246535 603.66442557 202.49578512 608.60172784 C202.46168651 613.94093913 202.45691737 619.28018925 202.44848633 624.61949158 C202.42993238 633.8568982 202.39302456 643.09408294 202.34345436 652.33137321 C202.27181223 665.68671862 202.22815512 679.04204176 202.19120713 692.39752287 C202.13049908 714.06873922 202.04733186 735.73980836 201.94995117 757.41088867 C201.85543408 778.45545303 201.77155007 799.50001573 201.7019043 820.54467773 C201.69760368 821.84306695 201.69330307 823.14145617 201.68887214 824.47919052 C201.66736143 830.99318551 201.64605912 837.50718116 201.62486041 844.02117717 C201.44887954 898.01425833 201.23641177 952.00715194 201 1006 C199.7472805 1006.03758423 199.7472805 1006.03758423 198.46925354 1006.07592773 C195.29779203 1006.17245672 192.1264238 1006.27157711 188.95509338 1006.37231445 C186.93679661 1006.43568243 184.91841108 1006.49620358 182.90002441 1006.55664062 C171.97478 1006.90651758 161.10885165 1007.66556208 150.21484375 1008.53515625 C144.81142954 1008.9571309 139.41507384 1009.22733208 134 1009.4375 C94.54539334 1011.11135506 54.91543719 1015.78952138 15.76904297 1020.83178711 C14.5523291 1020.98655518 13.33561523 1021.14132324 12.08203125 1021.30078125 C11.04280518 1021.43653564 10.0035791 1021.57229004 8.93286133 1021.7121582 C5.96794055 1022.00314643 2.97916589 1022 0 1022 C0 684.74 0 347.48 0 0 Z " fill="#AD050E" transform="translate(429,189)"/>
<path d="M0 0 C6.10978189 6.10978189 6.43267258 15.27883908 6.49363627 23.44946958 C6.49001531 25.92490224 6.46668335 28.3997292 6.4430542 30.87504578 C6.44066497 32.68295089 6.44004654 34.49085906 6.44103646 36.29876548 C6.43865946 41.24517292 6.41129197 46.19116985 6.3797195 51.13746536 C6.35004243 56.47948292 6.34371729 61.82153503 6.33451843 67.16362 C6.31541459 76.41197563 6.28160164 85.66018298 6.2377243 94.90845299 C6.17430694 108.27978847 6.13318767 121.65111985 6.09746507 135.02255461 C6.03890046 156.71814753 5.96236775 178.41363824 5.87451172 200.10913086 C5.7892194 221.1810462 5.71240411 242.2529644 5.64697266 263.32495117 C5.64293477 264.62439129 5.63889688 265.9238314 5.63473663 267.26264849 C5.61453144 273.78172615 5.59449274 280.30080432 5.5745368 286.81988275 C5.40883482 340.88002359 5.21366252 394.94002907 5 449 C0.38 449 -4.24 449 -9 449 C-9 448.67 -9 448.34 -9 448 C-4.71 448 -0.42 448 4 448 C3.67 317.65 3.34 187.3 3 53 C1.74161443 55.51677113 1.79181027 57.41293288 1.68359375 60.2265625 C1.64169922 61.2578125 1.59980469 62.2890625 1.55664062 63.3515625 C1.51732422 64.43179688 1.47800781 65.51203125 1.4375 66.625 C1.39431641 67.71296875 1.35113281 68.8009375 1.30664062 69.921875 C1.2003547 72.6144517 1.09831943 75.30712253 1 78 C0.67 78 0.34 78 0 78 C0.00333092 76.88579681 0.00333092 76.88579681 0.00672913 75.74908447 C0.02677451 68.74544754 0.04199583 61.74182056 0.05181217 54.73816299 C0.05702851 51.13760402 0.0641035 47.53706876 0.07543945 43.93652344 C0.0863127 40.46115638 0.09228626 36.98581214 0.09487724 33.51042938 C0.09762138 31.54065702 0.10542638 29.57089381 0.11329651 27.60113525 C0.11337204 26.40019226 0.11344757 25.19924927 0.11352539 23.96191406 C0.11685631 22.3763974 0.11685631 22.3763974 0.12025452 20.7588501 C0.0962333 18.06006321 0.0962333 18.06006321 -0.56959534 15.75238037 C-1 14 -1 14 0 12 C-0.165 11.0925 -0.33 10.185 -0.5 9.25 C-1.02244525 5.85410585 -0.71515895 3.33740843 0 0 Z " fill="#770209" transform="translate(625,746)"/>
<path d="M0 0 C0.33 0 0.66 0 1 0 C1 149.49 1 298.98 1 453 C-1.13324818 450.86675182 -1.53238345 449.8992226 -2 447 C-1.67 446.67 -1.34 446.34 -1 446 C-0.8961686 443.62783961 -0.85793086 441.28452545 -0.8613348 438.91160488 C-0.85849258 438.15743637 -0.85565036 437.40326787 -0.85272202 436.62624577 C-0.84431552 434.06677338 -0.84310218 431.5073459 -0.84178162 428.94786072 C-0.83722031 427.10733559 -0.83222093 425.26681151 -0.82681805 423.42628866 C-0.81317838 418.34344838 -0.80580181 413.26061481 -0.79939139 408.17776096 C-0.79141292 402.70600839 -0.77770643 397.23426992 -0.76467896 391.76252747 C-0.74287983 382.27398557 -0.72474797 372.78544227 -0.70907402 363.29688835 C-0.68640659 349.57786067 -0.65825949 335.85884859 -0.62875474 322.13983411 C-0.58104039 299.88416398 -0.53777812 277.62848706 -0.49731445 255.37280273 C-0.45798629 233.74747216 -0.41656905 212.12214725 -0.37231445 190.49682617 C-0.37095192 189.83060876 -0.36958939 189.16439135 -0.36818558 188.47798553 C-0.35314269 181.12391596 -0.33804248 173.7698465 -0.32291877 166.41577709 C-0.20889365 110.94386319 -0.10209769 55.47193704 0 0 Z " fill="#2C0203" transform="translate(790,189)"/>
<path d="M0 0 C0.33 0 0.66 0 1 0 C1.19578963 62.86223298 1.19578963 62.86223298 0.5625 87.5 C0.54285187 88.30912842 0.52320374 89.11825684 0.50296021 89.9519043 C0.31709344 97.36211135 -0.00424827 104.64956017 -1 112 C-1.66 112 -2.32 112 -3 112 C-3.0234242 101.96652699 -3.04106536 91.93306074 -3.05181217 81.8995657 C-3.05697645 77.23796544 -3.06395286 72.57638422 -3.07543945 67.91479492 C-3.16078459 32.21277469 -3.16078459 32.21277469 -2.62109375 18.47265625 C-2.59048355 17.61006699 -2.55987335 16.74747772 -2.52833557 15.85874939 C-2.26429776 10.40576143 -1.34396163 5.28876848 0 0 Z " fill="#9C040D" transform="translate(628,792)"/>
<path d="M0 0 C4.64083011 4.64083011 5.17244953 10.71730049 5.18118286 17.00097656 C5.13081403 20.04877303 5.03480457 23.09259719 4.90893555 26.13818359 C4.81273537 28.49423558 4.74324985 30.84994656 4.67773438 33.20703125 C4.46282547 39.89854918 4.17386664 46.34910551 2.45678711 52.85302734 C1.46610167 57.50940775 1.51866593 62.31853115 1.375 67.0625 C1.33632813 68.11888672 1.29765625 69.17527344 1.2578125 70.26367188 C1.16446907 72.84228408 1.07868747 75.42090608 1 78 C0.67 78 0.34 78 0 78 C0.00222061 77.25719788 0.00444122 76.51439575 0.00672913 75.74908447 C0.02677451 68.74544754 0.04199583 61.74182056 0.05181217 54.73816299 C0.05702851 51.13760402 0.0641035 47.53706876 0.07543945 43.93652344 C0.0863127 40.46115638 0.09228626 36.98581214 0.09487724 33.51042938 C0.09762138 31.54065702 0.10542638 29.57089381 0.11329651 27.60113525 C0.11337204 26.40019226 0.11344757 25.19924927 0.11352539 23.96191406 C0.115746 22.90490295 0.11796661 21.84789185 0.12025452 20.7588501 C0.0962333 18.06006321 0.0962333 18.06006321 -0.56959534 15.75238037 C-1 14 -1 14 0 12 C-0.2475 10.63875 -0.2475 10.63875 -0.5 9.25 C-1.02244525 5.85410585 -0.71515895 3.33740843 0 0 Z " fill="#89020B" transform="translate(625,746)"/>
<path d="M0 0 C5.42638037 3.92944785 5.42638037 3.92944785 7 6 C6.6875 8.1875 6.6875 8.1875 6 10 C6.66 10.33 7.32 10.66 8 11 C8.4140625 13.06640625 8.4140625 13.06640625 8.625 15.5625 C8.69976563 16.38878906 8.77453125 17.21507812 8.8515625 18.06640625 C8.90054688 18.70449219 8.94953125 19.34257813 9 20 C11.31 20.33 13.62 20.66 16 21 C16 23.64 16 26.28 16 29 C15.34 29.33 14.68 29.66 14 30 C14 31.32 14 32.64 14 34 C13.34 34 12.68 34 12 34 C8.9981572 26.29480902 6.06853151 18.56358426 3.1875 10.8125 C2.87353271 9.97485107 2.55956543 9.13720215 2.23608398 8.27416992 C1.94548096 7.48888916 1.65487793 6.7036084 1.35546875 5.89453125 C1.09403076 5.19175049 0.83259277 4.48896973 0.56323242 3.76489258 C0 2 0 2 0 0 Z " fill="#90030C" transform="translate(952,1099)"/>
<path d="M0 0 C1.32 0.99 2.64 1.98 4 3 C4.66 2.67 5.32 2.34 6 2 C6 3.98 6 5.96 6 8 C6.66 8 7.32 8 8 8 C8 8.66 8 9.32 8 10 C8.66 10 9.32 10 10 10 C9.649375 10.556875 9.29875 11.11375 8.9375 11.6875 C7.72460834 14.67929942 8.16872603 15.88272262 9 19 C9.35894425 20.60310441 9.71278992 22.2073559 10.0625 23.8125 C10.37448212 25.20844918 10.68680856 26.60432165 11 28 C10.34 28 9.68 28 9 28 C5.07680139 18.94325427 2.33617466 9.58067589 0 0 Z " fill="#8E030C" transform="translate(942,1070)"/>
<path d="M0 0 C2.70233373 1.35116687 2.79939584 2.60591187 3.83984375 5.41015625 C4.18080078 6.31830078 4.52175781 7.22644531 4.87304688 8.16210938 C5.39995117 9.59780273 5.39995117 9.59780273 5.9375 11.0625 C6.28490234 11.99255859 6.63230469 12.92261719 6.99023438 13.88085938 C7.67624722 15.71927044 8.358041 17.55926192 9.03540039 19.40087891 C9.64890847 21.05398117 10.27440224 22.70272139 10.91577148 24.34521484 C12.51146697 28.43792629 13.33122943 31.58360764 13 36 C12.01 36 11.02 36 10 36 C8.44893926 32.79447447 7.84364761 30.0084879 7.5625 26.5 C7.19871863 22.55686979 6.14963941 20.35343748 4 17 C3.24135181 14.32241814 2.58215573 11.71351928 2 9 C1.81308594 8.16984375 1.62617188 7.3396875 1.43359375 6.484375 C0.94796751 4.32452683 0.47068426 2.1631447 0 0 Z " fill="#9D040D" transform="translate(433,204)"/>
<path d="M0 0 C5.86449831 5.86449831 7.22994617 16.19567173 9 24 C7.02 23.34 5.04 22.68 3 22 C3.495 17.545 3.495 17.545 4 13 C2.02 13.99 2.02 13.99 0 15 C0 11.29032842 0.37004786 9.25990429 2 6 C1.01 5.67 0.02 5.34 -1 5 C-0.67 3.35 -0.34 1.7 0 0 Z " fill="#85020B" transform="translate(577,610)"/>
<path d="M0 0 C1.65 0 3.3 0 5 0 C4.98839844 0.80824219 4.97679687 1.61648438 4.96484375 2.44921875 C4.95582031 3.51785156 4.94679688 4.58648438 4.9375 5.6875 C4.92589844 6.74324219 4.91429687 7.79898437 4.90234375 8.88671875 C4.90540928 11.94290685 4.90540928 11.94290685 5.56640625 14.64453125 C6.03207225 17.17423032 5.6927149 18.56507023 5 21 C3.96334662 18.44292167 2.9456027 15.88081487 1.9375 13.3125 C1.64294922 12.59126953 1.34839844 11.87003906 1.04492188 11.12695312 C-0.53631551 7.05294152 -1.49159182 4.32135458 0 0 Z " fill="#97040D" transform="translate(970,1144)"/>
<path d="M0 0 C0.99 0 1.98 0 3 0 C3.185625 1.2065625 3.185625 1.2065625 3.375 2.4375 C3.58125 3.283125 3.7875 4.12875 4 5 C4.66 5.33 5.32 5.66 6 6 C6.66 5.34 7.32 4.68 8 4 C9.60080151 8.00200378 8.29279692 11.04556236 7 15 C7.66 15.66 8.32 16.32 9 17 C8.34 18.32 7.68 19.64 7 21 C6.01315119 18.62794139 5.0354245 16.25276513 4.0625 13.875 C3.78470703 13.20984375 3.50691406 12.5446875 3.22070312 11.859375 C1.61444624 7.91146651 0.5247835 4.26469631 0 0 Z " fill="#83020C" transform="translate(855,824)"/>
<path d="M0 0 C1.70884005 1.62339805 3.37446717 3.29319053 5 5 C5 5.66 5 6.32 5 7 C5.99 7 6.98 7 8 7 C7.67 11.29 7.34 15.58 7 20 C4.45909143 17.45909143 3.67171659 15.03545541 2.375 11.6875 C1.92898438 10.55699219 1.48296875 9.42648437 1.0234375 8.26171875 C0.08170671 5.26040115 -0.22162521 3.10858524 0 0 Z " fill="#84020D" transform="translate(816,712)"/>
<path d="M0 0 C0.66 0 1.32 0 2 0 C2.33 0.99 2.66 1.98 3 3 C5.01508358 3.73323796 5.01508358 3.73323796 7 4 C6.79375 5.051875 6.5875 6.10375 6.375 7.1875 C5.99025662 11.09905766 6.4106803 12.54089242 8 16 C8 17.32 8 18.64 8 20 C7.34 20 6.68 20 6 20 C4.99183944 17.41958904 3.9932889 14.83613056 3 12.25 C2.71382812 11.52039063 2.42765625 10.79078125 2.1328125 10.0390625 C1.86210938 9.33007812 1.59140625 8.62109375 1.3125 7.890625 C1.06113281 7.24125977 0.80976562 6.59189453 0.55078125 5.92285156 C0 4 0 4 0 0 Z " fill="#87020C" transform="translate(912,984)"/>
<path d="M0 0 C2.80515429 1.40257715 3.03174952 3.38110199 4.00195312 6.22460938 C4.34129883 7.25811523 4.34129883 7.25811523 4.6875 8.3125 C4.92533203 8.98990234 5.16316406 9.66730469 5.40820312 10.36523438 C7.46696479 16.54151937 7.46696479 16.54151937 6 20 C5.67 18.68 5.34 17.36 5 16 C3.68 16 2.36 16 1 16 C1 14.35 1 12.7 1 11 C0.34 10.67 -0.32 10.34 -1 10 C-0.67 6.7 -0.34 3.4 0 0 Z " fill="#89030C" transform="translate(483,344)"/>
<path d="M0 0 C3.69418201 1.231394 5.35109746 3.20791354 8 6 C7.67 6.99 7.34 7.98 7 9 C6.01 8.67 5.02 8.34 4 8 C4.33 9.32 4.66 10.64 5 12 C5.66 12 6.32 12 7 12 C7.33 13.65 7.66 15.3 8 17 C7.01 17.33 6.02 17.66 5 18 C4.16112944 15.56427941 3.32873471 13.12666783 2.5 10.6875 C2.14228516 9.65206055 2.14228516 9.65206055 1.77734375 8.59570312 C0.76791737 5.61068511 0 3.17341086 0 0 Z " fill="#82020C" transform="translate(864,848)"/>
<path d="M0 0 C2.45254443 2.98662287 3.87415265 5.80944083 5.1875 9.4375 C5.53167969 10.36433594 5.87585938 11.29117187 6.23046875 12.24609375 C6.99365027 14.97727636 7.14832648 17.18179685 7 20 C6.67 19.34 6.34 18.68 6 18 C4.35 18.33 2.7 18.66 1 19 C1.20625 17.9275 1.4125 16.855 1.625 15.75 C1.9876191 12.12380904 1.98362069 10.91708924 0 8 C0.66 8 1.32 8 2 8 C1.67 7.236875 1.34 6.47375 1 5.6875 C0 3 0 3 0 0 Z " fill="#86020C" transform="translate(536,494)"/>
<path d="M0 0 C1.9375 0.75 1.9375 0.75 4 2 C4.625 4.0625 4.625 4.0625 5 6 C5.66 6.33 6.32 6.66 7 7 C7.31241371 9.54941373 7.51303421 12.00361513 7.625 14.5625 C7.66367187 15.27341797 7.70234375 15.98433594 7.7421875 16.71679688 C7.83671783 18.47742425 7.91945817 20.23867728 8 22 C5.87738924 19.87738924 5.41288502 18.73100098 4.4921875 15.9375 C4.22792969 15.14085937 3.96367188 14.34421875 3.69140625 13.5234375 C3.42199219 12.69070313 3.15257812 11.85796875 2.875 11 C2.59785156 10.16726563 2.32070313 9.33453125 2.03515625 8.4765625 C0 2.28086515 0 2.28086515 0 0 Z " fill="#82020B" transform="translate(824,736)"/>
<path d="M0 0 C1.32 0.33 2.64 0.66 4 1 C4 1.99 4 2.98 4 4 C4.66 4.33 5.32 4.66 6 5 C6.95067299 8.28414305 7.10102197 9.69693408 6 13 C6.66 13 7.32 13 8 13 C8 15.64 8 18.28 8 21 C6 20 6 20 5.22216797 18.26586914 C4.86082764 17.16166626 4.86082764 17.16166626 4.4921875 16.03515625 C4.22792969 15.23529297 3.96367188 14.43542969 3.69140625 13.61132812 C3.42199219 12.77021484 3.15257812 11.92910156 2.875 11.0625 C2.59785156 10.22525391 2.32070313 9.38800781 2.03515625 8.52539062 C0 2.29460437 0 2.29460437 0 0 Z " fill="#81020C" transform="translate(872,872)"/>
<path d="M0 0 C0.66 0 1.32 0 2 0 C2.50833591 1.24663331 3.00631145 2.49749387 3.5 3.75 C3.7784375 4.44609375 4.056875 5.1421875 4.34375 5.859375 C5 8 5 8 5 12 C3.02 12 1.04 12 -1 12 C-2.1875 10.375 -2.1875 10.375 -3 8 C-1.625 4.875 -1.625 4.875 0 2 C0 1.34 0 0.68 0 0 Z " fill="#87020C" transform="translate(515,436)"/>
<path d="M0 0 C0.66 0 1.32 0 2 0 C2.53341184 1.57914015 3.05125763 3.16354387 3.5625 4.75 C3.85253906 5.63171875 4.14257812 6.5134375 4.44140625 7.421875 C5.01697435 10.07834316 4.89248371 11.47031106 4 14 C2.35 14 0.7 14 -1 14 C-1.027193 12.41676312 -1.04648306 10.83338938 -1.0625 9.25 C-1.07410156 8.36828125 -1.08570313 7.4865625 -1.09765625 6.578125 C-1.00826198 4.2181162 -0.66912821 2.25501476 0 0 Z " fill="#91030C" transform="translate(458,274)"/>
<path d="M0 0 C2.49247522 3.02096567 3.87956332 5.87923005 5.1875 9.5625 C5.53167969 10.51253906 5.87585938 11.46257812 6.23046875 12.44140625 C7 15 7 15 7 18 C5.35 18 3.7 18 2 18 C1.93941406 17.28714844 1.87882812 16.57429688 1.81640625 15.83984375 C1.35191899 10.53039712 0.81924749 5.266591 0 0 Z " fill="#93040C" transform="translate(448,246)"/>
<path d="M0 0 C3.20005429 1.60002714 3.45105531 4.40251441 4.625 7.6875 C5.07101562 8.90824219 5.51703125 10.12898437 5.9765625 11.38671875 C6.94601649 14.80940936 7.205988 17.47110033 7 21 C6.34 20.67 5.68 20.34 5 20 C5 18.68 5 17.36 5 16 C4.34 16 3.68 16 3 16 C3 15.01 3 14.02 3 13 C2.34 13 1.68 13 1 13 C0.67 8.71 0.34 4.42 0 0 Z " fill="#85020C" transform="translate(600,675)"/>
<path d="M0 0 C0.66 0 1.32 0 2 0 C2.84124316 2.24732102 3.67314832 4.49738785 4.5 6.75 C4.85771484 7.70132813 4.85771484 7.70132813 5.22265625 8.671875 C6.44801758 12.03286607 7 14.36871587 7 18 C6.01 17.67 5.02 17.34 4 17 C4 16.34 4 15.68 4 15 C3.01 14.67 2.02 14.34 1 14 C1.20625 13.113125 1.4125 12.22625 1.625 11.3125 C2.03181096 7.71900316 1.47782896 6.21645126 0 3 C0 2.01 0 1.02 0 0 Z " fill="#85020C" transform="translate(568,586)"/>
<path d="M0 0 C3.96 1.98 3.96 1.98 8 4 C8 4.66 8 5.32 8 6 C7.34 6 6.68 6 6 6 C6.33 8.64 6.66 11.28 7 14 C6.01 14.495 6.01 14.495 5 15 C4.16260219 12.8765984 3.33019717 10.7512272 2.5 8.625 C1.80390625 6.84996094 1.80390625 6.84996094 1.09375 5.0390625 C0 2 0 2 0 0 Z " fill="#89030D" transform="translate(936,1054)"/>
<path d="M0 0 C0.99 0 1.98 0 3 0 C3.103125 0.763125 3.20625 1.52625 3.3125 2.3125 C4.04364039 5.17059424 4.76951913 6.15742885 7 8 C7.33 7.01 7.66 6.02 8 5 C8.8125 6.6875 8.8125 6.6875 9 9 C6.5625 11.75 6.5625 11.75 4 14 C3.32471777 12.42032193 2.66010306 10.83608097 2 9.25 C1.62875 8.36828125 1.2575 7.4865625 0.875 6.578125 C0 4 0 4 0 0 Z " fill="#86020C" transform="translate(895,936)"/>
<path d="M0 0 C1.63201638 3.10965283 2.91437359 6.26690587 4.125 9.5625 C4.47820313 10.51253906 4.83140625 11.46257813 5.1953125 12.44140625 C6 15 6 15 6 18 C5.01 18.33 4.02 18.66 3 19 C3 17.68 3 16.36 3 15 C2.34 14.67 1.68 14.34 1 14 C-0.10348459 10.91857132 -0.10523224 7.99765038 -0.0625 4.75 C-0.05347656 3.85796875 -0.04445313 2.9659375 -0.03515625 2.046875 C-0.02355469 1.37140625 -0.01195312 0.6959375 0 0 Z " fill="#DA0913" transform="translate(771,588)"/>
<path d="M0 0 C3.75915495 2.5061033 3.72563254 3.81949803 4.6875 8.125 C4.93886719 9.22070312 5.19023438 10.31640625 5.44921875 11.4453125 C5.63097656 12.28835938 5.81273437 13.13140625 6 14 C4.35 14 2.7 14 1 14 C-0.14806378 4.58997722 -0.14806378 4.58997722 0 0 Z " fill="#84020C" transform="translate(529,476)"/>
<path d="M0 0 C2.38125464 2.38125464 3.00186241 4.33857567 4.125 7.5 C4.47820313 8.4796875 4.83140625 9.459375 5.1953125 10.46875 C6 13 6 13 6 15 C5.34 15 4.68 15 4 15 C4 14.34 4 13.68 4 13 C2.35 13 0.7 13 -1 13 C-0.79375 11.88625 -0.5875 10.7725 -0.375 9.625 C-0.25125 8.42875 -0.1275 7.2325 0 6 C-0.66 5.34 -1.32 4.68 -2 4 C-1.34 2.68 -0.68 1.36 0 0 Z " fill="#85020D" transform="translate(586,635)"/>
<path d="M0 0 C3.11772793 1.55886397 4.72454667 3.84173462 6 7 C6.33477303 10.69264793 6.23680351 14.30323414 6 18 C3.52621876 15.52621876 2.96861769 13.43825655 1.875 10.125 C1.52179687 9.07570313 1.16859375 8.02640625 0.8046875 6.9453125 C0 4 0 4 0 0 Z " fill="#84030C" transform="translate(833,760)"/>
<path d="M0 0 C0.66 0 1.32 0 2 0 C2.0825 0.61875 2.165 1.2375 2.25 1.875 C2.81258459 4.18437567 2.81258459 4.18437567 5.0625 5.25 C5.701875 5.4975 6.34125 5.745 7 6 C7.09978121 9.49234244 6.77842938 12.59437148 6 16 C1.96190932 11.38503922 0 6.07147123 0 0 Z " fill="#85020A" transform="translate(849,806)"/>
<path d="M0 0 C3.89513449 4.45158227 5.87351973 9.63903497 6.1875 15.5 C6.125625 16.325 6.06375 17.15 6 18 C5.34 17.67 4.68 17.34 4 17 C3.26924352 14.6859378 2.59861742 12.35171131 2 10 C1.34 10 0.68 10 0 10 C-0.19412181 8.52168779 -0.38012131 7.04230684 -0.5625 5.5625 C-0.66691406 4.73878906 -0.77132813 3.91507812 -0.87890625 3.06640625 C-0.91886719 2.38449219 -0.95882813 1.70257813 -1 1 C-0.67 0.67 -0.34 0.34 0 0 Z " fill="#88030B" transform="translate(505,406)"/>
<path d="M0 0 C0.99 0.66 1.98 1.32 3 2 C2.34 4.31 1.68 6.62 1 9 C1.99 9.33 2.98 9.66 4 10 C3.67 10.66 3.34 11.32 3 12 C2.9603287 13.66619446 2.95615553 15.33391013 3 17 C-0.24290174 12.1356474 -2.55811184 6.95319301 -2 1 C-1.34 0.67 -0.68 0.34 0 0 Z " fill="#85020C" transform="translate(804,671)"/>
<path d="M0 0 C0.66 0 1.32 0 2 0 C2.86992154 2.05590454 3.72037689 4.12005336 4.5625 6.1875 C5.03816406 7.33605469 5.51382813 8.48460937 6.00390625 9.66796875 C7.01536316 13.05139127 7.04283184 14.68416941 6 18 C5.01 17.34 4.02 16.68 3 16 C2.60539977 13.67624308 2.27769908 11.3406065 2 9 C1.3400321 7.33066942 0.67441131 5.6635479 0 4 C0 2.68 0 1.36 0 0 Z " fill="#89030C" transform="translate(521,453)"/>
<path d="M0 0 C2.56529454 1.28264727 2.66499863 2.22772349 3.625 4.875 C3.88539063 5.57367187 4.14578125 6.27234375 4.4140625 6.9921875 C5 9 5 9 5 12 C4.34 12 3.68 12 3 12 C1.66666667 10.33333333 0.33333333 8.66666667 -1 7 C-1.66 7 -2.32 7 -3 7 C-3 6.01 -3 5.02 -3 4 C-2.34 4 -1.68 4 -1 4 C-0.67 2.68 -0.34 1.36 0 0 Z " fill="#86030C" transform="translate(620,732)"/>
<path d="M0 0 C2.39777833 2.90292826 3.68422011 5.45733641 4.75 9.0625 C5.01296875 9.91972656 5.2759375 10.77695312 5.546875 11.66015625 C6 14 6 14 5 17 C0.65292985 11.30223306 -0.74521523 7.15406617 0 0 Z " fill="#83030B" transform="translate(553,542)"/>
<path d="M0 0 C0.66 0.33 1.32 0.66 2 1 C2 2.32 2 3.64 2 5 C2.15224303 7.25102195 2.32008167 9.50102086 2.5 11.75 C2.5928125 12.92046875 2.685625 14.0909375 2.78125 15.296875 C2.8534375 16.18890625 2.925625 17.0809375 3 18 C0.81692968 15.81692968 0.35653664 14.52164953 -0.5625 11.625 C-0.81128906 10.85414063 -1.06007813 10.08328125 -1.31640625 9.2890625 C-1.54199219 8.53367187 -1.76757812 7.77828125 -2 7 C-2.22429688 6.28070312 -2.44859375 5.56140625 -2.6796875 4.8203125 C-2.78539062 4.21960938 -2.89109375 3.61890625 -3 3 C-1.5625 1.25 -1.5625 1.25 0 0 Z " fill="#83020B" transform="translate(885,898)"/>
<path d="M0 0 C2.62799102 1.86502588 3.86365751 3.30410791 4.48828125 6.4921875 C4.72593573 8.9964272 4.9040664 11.48653979 5 14 C4.34 14 3.68 14 3 14 C2.40267181 11.23735711 2 8.83967231 2 6 C1.34 6 0.68 6 0 6 C0 4.02 0 2.04 0 0 Z " fill="#8A030D" transform="translate(473,318)"/>
<path d="M0 0 C1.32 0.33 2.64 0.66 4 1 C4.12375 1.5775 4.2475 2.155 4.375 2.75 C5.00648824 5.02335767 5.88858191 6.9253529 7 9 C6.01 10.32 5.02 11.64 4 13 C3.32942113 11.2097939 2.6636531 9.41778511 2 7.625 C1.62875 6.62726562 1.2575 5.62953125 0.875 4.6015625 C0 2 0 2 0 0 Z " fill="#85020C" transform="translate(920,1008)"/>
<path d="M0 0 C3.4599577 2.67360368 4.06972239 5.84953067 5 10 C5.125 12.9375 5.125 12.9375 5 15 C3.68 14.67 2.36 14.34 1 14 C1.01740234 13.11248047 1.01740234 13.11248047 1.03515625 12.20703125 C1.08322386 7.99768215 1.06006883 4.1077667 0 0 Z " fill="#8B030B" transform="translate(464,291)"/>
<path d="M0 0 C0.99 0 1.98 0 3 0 C3 0.66 3 1.32 3 2 C4.32 2.33 5.64 2.66 7 3 C6.525625 3.5775 6.05125 4.155 5.5625 4.75 C4.03264756 6.95298751 3.55661048 8.42770302 3 11 C2.49384702 9.73160474 1.99530901 8.46016898 1.5 7.1875 C1.2215625 6.47980469 0.943125 5.77210938 0.65625 5.04296875 C0 3 0 3 0 0 Z " fill="#83020C" transform="translate(809,693)"/>
<path d="M0 0 C0.928125 0.2784375 0.928125 0.2784375 1.875 0.5625 C4.04160178 1.23686176 4.04160178 1.23686176 6 0 C6.20086443 3.71599191 6.1519437 4.77208445 4 8 C3.34 8 2.68 8 2 8 C0.74335022 5.09399739 0 3.20395416 0 0 Z " fill="#84020C" transform="translate(905,965)"/>
<path d="M0 0 C0.99 0 1.98 0 3 0 C6.07692308 6.4 6.07692308 6.4 5.6875 9.4375 C5.460625 9.953125 5.23375 10.46875 5 11 C4.01 10.67 3.02 10.34 2 10 C1.77213542 7.98177083 1.54427083 5.96354167 1.31640625 3.9453125 C1.08707039 1.92595684 1.08707039 1.92595684 0 0 Z " fill="#87030C" transform="translate(543,519)"/>
<path d="M0 0 C0.66 0 1.32 0 2 0 C2.99 3.63 3.98 7.26 5 11 C4.34 11 3.68 11 3 11 C2.01 9.02 1.02 7.04 0 5 C-0.66 5 -1.32 5 -2 5 C-2 4.01 -2 3.02 -2 2 C-1.34 2 -0.68 2 0 2 C0 1.34 0 0.68 0 0 Z " fill="#D20713" transform="translate(725,461)"/>
<path d="M0 0 C3.31012244 3.31012244 3.50351065 4.53159589 4 9 C2.35 9 0.7 9 -1 9 C-0.67 6.03 -0.34 3.06 0 0 Z " fill="#83020D" transform="translate(564,575)"/>
<path d="M0 0 C2.45823172 3.68734758 3.01242616 6.69699971 4 11 C3.01 11.33 2.02 11.66 1 12 C-0.80619523 7.53763531 -1.11658501 4.68965706 0 0 Z " fill="#D20811" transform="translate(675,317)"/>
<path d="M0 0 C2.14331139 2.14331139 2.514193 3.14086424 3.25 6 C3.44078125 6.70125 3.6315625 7.4025 3.828125 8.125 C3.88484375 8.74375 3.9415625 9.3625 4 10 C3.34 10.66 2.68 11.32 2 12 C-1 3 -1 3 0 0 Z " fill="#D20712" transform="translate(691,363)"/>
<path d="M0 0 C0.99 0 1.98 0 3 0 C3.99 2.97 4.98 5.94 6 9 C4.68 7.68 3.36 6.36 2 5 C1.01 5.495 1.01 5.495 0 6 C0 4.02 0 2.04 0 0 Z " fill="#D30814" transform="translate(699,392)"/>
<path d="M0 0 C1.83836919 3.67673838 2.93651813 7.04992447 4 11 C1.525 10.01 1.525 10.01 -1 9 C-0.67 6.03 -0.34 3.06 0 0 Z " fill="#CD0710" transform="translate(684,342)"/>
<path d="M0 0 C4 7.91596639 4 7.91596639 4 12 C3.34 12 2.68 12 2 12 C0 10 0 10 -0.1953125 7.6171875 C-0.17210937 6.71226562 -0.14890625 5.80734375 -0.125 4.875 C-0.10695313 3.96492187 -0.08890625 3.05484375 -0.0703125 2.1171875 C-0.04710937 1.41851563 -0.02390625 0.71984375 0 0 Z " fill="#CC0711" transform="translate(771,588)"/>
<path d="M0 0 C0.99 0 1.98 0 3 0 C3.33 1.98 3.66 3.96 4 6 C1.69 5.67 -0.62 5.34 -3 5 C-1.125 1.125 -1.125 1.125 0 0 Z " fill="#88030C" transform="translate(491,372)"/>
<path d="M0 0 C1.98 0.99 1.98 0.99 4 2 C3.67 2.66 3.34 3.32 3 4 C3.60760482 6.3494053 4.27129528 8.68529088 5 11 C4.34 11 3.68 11 3 11 C2.49384702 9.73160474 1.99530901 8.46016898 1.5 7.1875 C1.2215625 6.47980469 0.943125 5.77210938 0.65625 5.04296875 C0 3 0 3 0 0 Z " fill="#88020B" transform="translate(900,951)"/>
<path d="M0 0 C2 2 2 2 2.265625 3.875 C2.26046875 4.57625 2.2553125 5.2775 2.25 6 C2.25515625 6.70125 2.2603125 7.4025 2.265625 8.125 C2 10 2 10 0 12 C-0.66 10.02 -1.32 8.04 -2 6 C-1.01 6 -0.02 6 1 6 C0.67 4.02 0.34 2.04 0 0 Z " fill="#81030B" transform="translate(611,706)"/>
<path d="M0 0 C2.475 0.495 2.475 0.495 5 1 C4.34 1.66 3.68 2.32 3 3 C3.32326553 6.59679066 3.32326553 6.59679066 4 10 C1.997499 7.997499 1.06784629 6.593341 0 4 C0 2.68 0 1.36 0 0 Z " fill="#84020B" transform="translate(795,654)"/>
<path d="M0 0 C1.9451 2.91765 2.45276317 4.62537285 3 8 C2.01 7.67 1.02 7.34 0 7 C-0.99 7.99 -1.98 8.98 -3 10 C-2.67 8.02 -2.34 6.04 -2 4 C-1.34 4 -0.68 4 0 4 C0 2.68 0 1.36 0 0 Z " fill="#C60711" transform="translate(748,523)"/>
<path d="M0 0 C1.65 0 3.3 0 5 0 C4.34 1.98 3.68 3.96 3 6 C2.01 5.34 1.02 4.68 0 4 C0 2.68 0 1.36 0 0 Z " fill="#9D040E" transform="translate(977,1168)"/>
<path d="M0 0 C0.66 0 1.32 0 2 0 C2.99 3.3 3.98 6.6 5 10 C4.01 9.67 3.02 9.34 2 9 C2 7.68 2 6.36 2 5 C1.34 5 0.68 5 0 5 C0 3.35 0 1.7 0 0 Z " fill="#CB0812" transform="translate(779,614)"/>
<path d="M0 0 C0.66 0.33 1.32 0.66 2 1 C1.42655063 3.86724686 1.1385485 4.8614515 -1 7 C-2 6 -2 6 -2.0625 3.4375 C-2.041875 2.633125 -2.02125 1.82875 -2 1 C-1.34 0.67 -0.68 0.34 0 0 Z " fill="#8A030C" transform="translate(934,1039)"/>
<path d="M0 0 C1.32 0.33 2.64 0.66 4 1 C4 3.97 4 6.94 4 10 C1.04816899 7.04816899 0.91336012 4.04488053 0 0 Z " fill="#80020B" transform="translate(843,790)"/>
<path d="M0 0 C1.3479743 0.63654342 2.68596724 1.29605388 4 2 C-0.16138263 2.08159574 -3.9472484 1.98248524 -8 1 C-4.91013114 -0.87599181 -3.40359125 -1.27634672 0 0 Z " fill="#AE070D" transform="translate(952,1205)"/>
<path d="M0 0 C2 2 2 2 2.125 5.125 C2.08375 6.07375 2.0425 7.0225 2 8 C0.68 8 -0.64 8 -2 8 C-1.67 7.01 -1.34 6.02 -1 5 C-1 4.34 -1 3.68 -1 3 C-0.67 2.01 -0.34 1.02 0 0 Z " fill="#86020C" transform="translate(498,386)"/>
<path d="M0 0 C1.88391785 3.26545761 2.49287967 6.28111761 3 10 C2.34 10 1.68 10 1 10 C-1.42857143 3.71428571 -1.42857143 3.71428571 0 0 Z " fill="#C10710" transform="translate(636,206)"/>
</svg>
